
<svg xmlns="http://www.w3.org/2000/svg"
     xmlns:xlink="http://www.w3.org/1999/xlink" version="1.1" width="648"
     height="289">
    <defs/>
    <g transform=" translate(-27.40625,-165.5)">
        <rect x="440" y="180" width="50" height="30" fill="#efd3d2"
              stroke="#000000" pointer-events="none"/>
        <g fill="#000" font-family="Arial,Helvetica" text-anchor="middle"
           font-size="12px">
            <text x="464.75" y="198.75">
                Pin 2
            </text>
        </g>
        <rect x="210" y="420" width="50" height="30" fill="#efd3d2"
              stroke="#000000" pointer-events="none"/>
        <g fill="#000" font-family="Arial,Helvetica" text-anchor="middle"
           font-size="12px">
            <text x="234.75" y="438.75">
                Pin 11
            </text>
        </g>
        <rect x="320" y="420" width="50" height="30" fill="#efd3d2"
              stroke="#000000" pointer-events="none"/>
        <g fill="#000" font-family="Arial,Helvetica" text-anchor="middle"
           font-size="12px">
            <text x="344.75" y="438.75">
                Pin 12
            </text>
        </g>
        <rect x="140" y="420" width="50" height="30" fill="#efd3d2"
              stroke="#000000" pointer-events="none"/>
        <g fill="#000" font-family="Arial,Helvetica" text-anchor="middle"
           font-size="12px">
            <text x="164.75" y="438.75">
                Pin 10
            </text>
        </g>
        <rect x="60" y="420" width="50" height="30" fill="#efd3d2"
              stroke="#000000" pointer-events="none"/>
        <g fill="#000" font-family="Arial,Helvetica" text-anchor="middle"
           font-size="12px">
            <text x="84.75" y="438.75">
                Pin 9
            </text>
        </g>
        <rect x="440" y="340" width="50" height="30" fill="#efd3d2"
              stroke="#000000" pointer-events="none"/>
        <g fill="#000" font-family="Arial,Helvetica" text-anchor="middle"
           font-size="12px">
            <text x="464.75" y="358.75">
                Pin3
            </text>
        </g>
        <rect x="620" y="260" width="50" height="30" fill="#efd3d2"
              stroke="#000000" pointer-events="none"/>
        <g fill="#000" font-family="Arial,Helvetica" text-anchor="middle"
           font-size="12px">
            <text x="644.75" y="278.75">
                5V
            </text>
        </g>
        <rect x="509" y="219" width="2" height="2" fill="#000000" stroke="none"
              transform="rotate(90,510,250)" pointer-events="none"/>
        <rect x="509" y="279" width="2" height="2" fill="#000000" stroke="none"
              transform="rotate(90,510,250)" pointer-events="none"/>
        <path d="M 510 232 L 517 235 L 510 238" fill="none" stroke="#000000"
              stroke-width="2" stroke-linejoin="round" stroke-linecap="round"
              stroke-miterlimit="10" transform="rotate(90,510,250)"
              pointer-events="none"/>
        <path d="M 510 238 L 503 241 L 510 244" fill="none" stroke="#000000"
              stroke-width="2" stroke-linejoin="round" stroke-linecap="round"
              stroke-miterlimit="10" transform="rotate(90,510,250)"
              pointer-events="none"/>
        <path d="M 510 244 L 517 247 L 510 250" fill="none" stroke="#000000"
              stroke-width="2" stroke-linejoin="round" stroke-linecap="round"
              stroke-miterlimit="10" transform="rotate(90,510,250)"
              pointer-events="none"/>
        <path d="M 510 250 L 503 253 L 510 256" fill="none" stroke="#000000"
              stroke-width="2" stroke-linejoin="round" stroke-linecap="round"
              stroke-miterlimit="10" transform="rotate(90,510,250)"
              pointer-events="none"/>
        <path d="M 510 256 L 517 259 L 510 262" fill="none" stroke="#000000"
              stroke-width="2" stroke-linejoin="round" stroke-linecap="round"
              stroke-miterlimit="10" transform="rotate(90,510,250)"
              pointer-events="none"/>
        <path d="M 510 262 L 503 265 L 510 268" fill="none" stroke="#000000"
              stroke-width="2" stroke-linejoin="round" stroke-linecap="round"
              stroke-miterlimit="10" transform="rotate(90,510,250)"
              pointer-events="none"/>
        <path d="M 510 221 L 510 231" fill="#000000" stroke="#000000"
              stroke-width="2" stroke-linecap="square" stroke-miterlimit="10"
              transform="rotate(90,510,250)" pointer-events="none"/>
        <path d="M 510 269 L 510 279" fill="#000000" stroke="#000000"
              stroke-width="2" stroke-linecap="square" stroke-miterlimit="10"
              transform="rotate(90,510,250)" pointer-events="none"/>
        <rect x="536" y="246" width="8" height="8" fill="none" stroke="none"
              pointer-events="none"/>
        <rect x="476" y="246" width="8" height="8" fill="none" stroke="none"
              pointer-events="none"/>
        <rect x="498" y="230" width="28" height="13" fill-opacity="0"
              fill="#dae2f2" stroke="#000000" stroke-opacity="0"
              pointer-events="none"/>
        <g fill="#000000" font-family="Arial,Helvetica" font-weight="bold"
           text-anchor="middle" font-size="12px">
            <text x="511.75" y="240.25">
                10k R
            </text>
        </g>
        <rect x="509" y="269" width="2" height="2" fill="#000000" stroke="none"
              transform="rotate(90,510,300)" pointer-events="none"/>
        <rect x="509" y="329" width="2" height="2" fill="#000000" stroke="none"
              transform="rotate(90,510,300)" pointer-events="none"/>
        <path d="M 510 282 L 517 285 L 510 288" fill="none" stroke="#000000"
              stroke-width="2" stroke-linejoin="round" stroke-linecap="round"
              stroke-miterlimit="10" transform="rotate(90,510,300)"
              pointer-events="none"/>
        <path d="M 510 288 L 503 291 L 510 294" fill="none" stroke="#000000"
              stroke-width="2" stroke-linejoin="round" stroke-linecap="round"
              stroke-miterlimit="10" transform="rotate(90,510,300)"
              pointer-events="none"/>
        <path d="M 510 294 L 517 297 L 510 300" fill="none" stroke="#000000"
              stroke-width="2" stroke-linejoin="round" stroke-linecap="round"
              stroke-miterlimit="10" transform="rotate(90,510,300)"
              pointer-events="none"/>
        <path d="M 510 300 L 503 303 L 510 306" fill="none" stroke="#000000"
              stroke-width="2" stroke-linejoin="round" stroke-linecap="round"
              stroke-miterlimit="10" transform="rotate(90,510,300)"
              pointer-events="none"/>
        <path d="M 510 306 L 517 309 L 510 312" fill="none" stroke="#000000"
              stroke-width="2" stroke-linejoin="round" stroke-linecap="round"
              stroke-miterlimit="10" transform="rotate(90,510,300)"
              pointer-events="none"/>
        <path d="M 510 312 L 503 315 L 510 318" fill="none" stroke="#000000"
              stroke-width="2" stroke-linejoin="round" stroke-linecap="round"
              stroke-miterlimit="10" transform="rotate(90,510,300)"
              pointer-events="none"/>
        <path d="M 510 271 L 510 281" fill="#000000" stroke="#000000"
              stroke-width="2" stroke-linecap="square" stroke-miterlimit="10"
              transform="rotate(90,510,300)" pointer-events="none"/>
        <path d="M 510 319 L 510 329" fill="#000000" stroke="#000000"
              stroke-width="2" stroke-linecap="square" stroke-miterlimit="10"
              transform="rotate(90,510,300)" pointer-events="none"/>
        <rect x="536" y="296" width="8" height="8" fill="none" stroke="none"
              pointer-events="none"/>
        <rect x="476" y="296" width="8" height="8" fill="none" stroke="none"
              pointer-events="none"/>
        <rect x="498" y="310" width="28" height="13" fill-opacity="0"
              fill="#dae2f2" stroke="#000000" stroke-opacity="0"
              pointer-events="none"/>
        <g fill="#000000" font-family="Arial,Helvetica" font-weight="bold"
           text-anchor="middle" font-size="12px">
            <text x="511.75" y="320.25">
                10k R
            </text>
        </g>
        <path d="M 540 250 L 570 250 L 570 300 L 540 300" fill="none"
              stroke="#000000" stroke-width="2" stroke-miterlimit="10"
              pointer-events="none"/>
        <path d="M 570 270 L 620 270" fill="none" stroke="#000000"
              stroke-width="2" stroke-miterlimit="10" pointer-events="none"/>
        <rect x="439" y="249" width="2" height="2" fill="#000000" stroke="none"
              pointer-events="none"/>
        <rect x="379" y="249" width="2" height="2" fill="#000000" stroke="none"
              pointer-events="none"/>
        <ellipse cx="427" cy="250" rx="2" ry="2" fill="none" stroke="#000000"
                 stroke-width="2" pointer-events="none"/>
        <rect x="390.65" y="242.13" width="38.92" height="0.94" fill="none"
              stroke="#000000" stroke-width="1.08" pointer-events="none"/>
        <ellipse cx="392" cy="250" rx="2" ry="2" fill="none" stroke="#000000"
                 stroke-width="2" pointer-events="none"/>
        <path d="M 430.5 250 L 439 250" fill="none" stroke="#000000"
              stroke-width="2" stroke-linecap="square" stroke-miterlimit="10"
              pointer-events="none"/>
        <path d="M 381 250 L 389.5 250" fill="none" stroke="#000000"
              stroke-width="2" stroke-linecap="square" stroke-miterlimit="10"
              pointer-events="none"/>
        <path d="M 410.12 225.72 C 410.12 241.6 410.12 241.6 410.12 241.6"
              fill="none" stroke="#000000" stroke-width="2"
              stroke-linecap="square" stroke-miterlimit="10"
              pointer-events="none"/>
        <rect x="376" y="246" width="8" height="8" fill="none" stroke="none"
              pointer-events="none"/>
        <rect x="436" y="246" width="8" height="8" fill="none" stroke="none"
              pointer-events="none"/>
        <path d="M 440 250 L 480 250" fill="none" stroke="#000000"
              stroke-width="2" stroke-miterlimit="10" pointer-events="none"/>
        <rect x="439" y="299" width="2" height="2" fill="#000000" stroke="none"
              pointer-events="none"/>
        <rect x="379" y="299" width="2" height="2" fill="#000000" stroke="none"
              pointer-events="none"/>
        <ellipse cx="427" cy="300" rx="2" ry="2" fill="none" stroke="#000000"
                 stroke-width="2" pointer-events="none"/>
        <rect x="390.65" y="292.13" width="38.92" height="0.94" fill="none"
              stroke="#000000" stroke-width="1.08" pointer-events="none"/>
        <ellipse cx="392" cy="300" rx="2" ry="2" fill="none" stroke="#000000"
                 stroke-width="2" pointer-events="none"/>
        <path d="M 430.5 300 L 439 300" fill="none" stroke="#000000"
              stroke-width="2" stroke-linecap="square" stroke-miterlimit="10"
              pointer-events="none"/>
        <path d="M 381 300 L 389.5 300" fill="none" stroke="#000000"
              stroke-width="2" stroke-linecap="square" stroke-miterlimit="10"
              pointer-events="none"/>
        <path d="M 410.12 275.72 C 410.12 291.6 410.12 291.6 410.12 291.6"
              fill="none" stroke="#000000" stroke-width="2"
              stroke-linecap="square" stroke-miterlimit="10"
              pointer-events="none"/>
        <rect x="376" y="296" width="8" height="8" fill="none" stroke="none"
              pointer-events="none"/>
        <rect x="436" y="296" width="8" height="8" fill="none" stroke="none"
              pointer-events="none"/>
        <path d="M 440 300 L 480 300" fill="none" stroke="#000000"
              stroke-width="2" stroke-miterlimit="10" pointer-events="none"/>
        <path d="M 460 300 L 462.5 300 Q 465 300 465 310 L 465 340" fill="none"
              stroke="#000000" stroke-width="2" stroke-miterlimit="10"
              pointer-events="none"/>
        <path d="M 460 250 L 462.5 250 Q 465 250 465 240 L 465 210" fill="none"
              stroke="#000000" stroke-width="2" stroke-miterlimit="10"
              pointer-events="none"/>
        <path d="M 380 250 L 340 250 L 340 300 L 380 300" fill="none"
              stroke="#000000" stroke-width="2" stroke-miterlimit="10"
              pointer-events="none"/>
        <rect x="339" y="209" width="2" height="2" fill="#000000" stroke="none"
              transform="rotate(180,340,230)" pointer-events="none"/>
        <path d="M 329 231 C 351.02 231 351.02 231 351.02 231" fill="none"
              stroke="#000000" stroke-width="2" stroke-linecap="round"
              stroke-miterlimit="10" transform="rotate(180,340,230)"
              pointer-events="none"/>
        <path d="M 333 237 C 342.57 237 347 237 347 237" fill="none"
              stroke="#000000" stroke-width="2" stroke-linecap="round"
              stroke-miterlimit="10" transform="rotate(180,340,230)"
              pointer-events="none"/>
        <path d="M 337 243 C 340.12 243 343 243 343 243" fill="none"
              stroke="#000000" stroke-width="2" stroke-linecap="round"
              stroke-miterlimit="10" transform="rotate(180,340,230)"
              pointer-events="none"/>
        <path d="M 340 211 L 340 229" fill="#000000" stroke="#000000"
              stroke-width="2" stroke-linecap="square" stroke-miterlimit="10"
              transform="rotate(180,340,230)" pointer-events="none"/>
        <rect x="336" y="246" width="8" height="8" fill="none" stroke="none"
              pointer-events="none"/>
        <rect x="339" y="299" width="2" height="2" fill="#000000" stroke="none"
              pointer-events="none"/>
        <rect x="339" y="359" width="2" height="2" fill="#000000" stroke="none"
              pointer-events="none"/>
        <path d="M 340 312 L 347 315 L 340 318" fill="none" stroke="#000000"
              stroke-width="2" stroke-linejoin="round" stroke-linecap="round"
              stroke-miterlimit="10" pointer-events="none"/>
        <path d="M 340 318 L 333 321 L 340 324" fill="none" stroke="#000000"
              stroke-width="2" stroke-linejoin="round" stroke-linecap="round"
              stroke-miterlimit="10" pointer-events="none"/>
        <path d="M 340 324 L 347 327 L 340 330" fill="none" stroke="#000000"
              stroke-width="2" stroke-linejoin="round" stroke-linecap="round"
              stroke-miterlimit="10" pointer-events="none"/>
        <path d="M 340 330 L 333 333 L 340 336" fill="none" stroke="#000000"
              stroke-width="2" stroke-linejoin="round" stroke-linecap="round"
              stroke-miterlimit="10" pointer-events="none"/>
        <path d="M 340 336 L 347 339 L 340 342" fill="none" stroke="#000000"
              stroke-width="2" stroke-linejoin="round" stroke-linecap="round"
              stroke-miterlimit="10" pointer-events="none"/>
        <path d="M 340 342 L 333 345 L 340 348" fill="none" stroke="#000000"
              stroke-width="2" stroke-linejoin="round" stroke-linecap="round"
              stroke-miterlimit="10" pointer-events="none"/>
        <path d="M 340 301 L 340 311" fill="#000000" stroke="#000000"
              stroke-width="2" stroke-linecap="square" stroke-miterlimit="10"
              pointer-events="none"/>
        <path d="M 340 349 L 340 359" fill="#000000" stroke="#000000"
              stroke-width="2" stroke-linecap="square" stroke-miterlimit="10"
              pointer-events="none"/>
        <rect x="336" y="296" width="8" height="8" fill="none" stroke="none"
              pointer-events="none"/>
        <rect x="336" y="356" width="8" height="8" fill="none" stroke="none"
              pointer-events="none"/>
        <rect x="304" y="326" width="28" height="14" fill-opacity="0"
              fill="#dae2f2" stroke="#000000" stroke-opacity="0"
              pointer-events="none"/>
        <g fill="#000000" font-family="Arial,Helvetica" font-weight="bold"
           text-anchor="middle" font-size="12px">
            <text x="317.75" y="336.75">
                330R
            </text>
        </g>
        <rect x="339" y="359" width="2" height="2" fill="#000000" stroke="none"
              pointer-events="none"/>
        <rect x="339" y="419" width="2" height="2" fill="#000000" stroke="none"
              pointer-events="none"/>
        <path d="M 332 382.26 C 354 382.26 348 382.26 348 382.26" fill="none"
              stroke="#000000" stroke-width="2" stroke-linecap="round"
              stroke-miterlimit="10" pointer-events="none"/>
        <path d="M 339.86 382.54 C 339.86 382.54 339.86 382.54 332 397.26 C 347.72 397.26 347.72 397.26 347.72 397.26 Z"
              fill="#000000" stroke="#000000" stroke-width="1.49"
              stroke-linejoin="round" stroke-linecap="round"
              stroke-miterlimit="10" pointer-events="none"/>
        <path d="M 340 361 L 340 419" fill="#000000" stroke="#000000"
              stroke-width="2" stroke-linecap="square" stroke-miterlimit="10"
              pointer-events="none"/>
        <path d="M 358.25 378.77 L 362.49 383.01 L 365.32 375.94 Z"
              fill="#000000" stroke="#000000" stroke-linejoin="round"
              stroke-linecap="square" stroke-miterlimit="10"
              pointer-events="none"/>
        <path d="M 354 387.23 L 362.49 378.74" fill="none" stroke="#000000"
              stroke-width="2" stroke-linejoin="round" stroke-linecap="round"
              stroke-miterlimit="10" pointer-events="none"/>
        <path d="M 356.57 367.71 L 360.81 371.96 L 363.64 364.89 Z"
              fill="#000000" stroke="#000000" stroke-linejoin="round"
              stroke-linecap="round" stroke-miterlimit="10"
              pointer-events="none"/>
        <path d="M 352.33 376.22 L 360.81 367.73" fill="none" stroke="#000000"
              stroke-width="2" stroke-linejoin="round" stroke-linecap="round"
              stroke-miterlimit="10" pointer-events="none"/>
        <rect x="336" y="356" width="8" height="8" fill="none" stroke="none"
              pointer-events="none"/>
        <rect x="336" y="416" width="8" height="8" fill="none" stroke="none"
              pointer-events="none"/>
        <rect x="304" y="380" width="20" height="13" fill-opacity="0"
              fill="#dae2f2" stroke="#000000" stroke-opacity="0"
              pointer-events="none"/>
        <g fill="#000000" font-family="Arial,Helvetica" font-weight="bold"
           text-anchor="middle" font-size="12px">
            <text x="313.75" y="390.25">
                Red
            </text>
        </g>
        <rect x="239" y="359" width="2" height="2" fill="#000000" stroke="none"
              pointer-events="none"/>
        <rect x="239" y="419" width="2" height="2" fill="#000000" stroke="none"
              pointer-events="none"/>
        <path d="M 232 382.26 C 254 382.26 248 382.26 248 382.26" fill="none"
              stroke="#000000" stroke-width="2" stroke-linecap="round"
              stroke-miterlimit="10" pointer-events="none"/>
        <path d="M 239.86 382.54 C 239.86 382.54 239.86 382.54 232 397.26 C 247.72 397.26 247.72 397.26 247.72 397.26 Z"
              fill="#000000" stroke="#000000" stroke-width="1.49"
              stroke-linejoin="round" stroke-linecap="round"
              stroke-miterlimit="10" pointer-events="none"/>
        <path d="M 240 361 L 240 419" fill="#000000" stroke="#000000"
              stroke-width="2" stroke-linecap="square" stroke-miterlimit="10"
              pointer-events="none"/>
        <path d="M 258.25 378.77 L 262.49 383.01 L 265.32 375.94 Z"
              fill="#000000" stroke="#000000" stroke-linejoin="round"
              stroke-linecap="square" stroke-miterlimit="10"
              pointer-events="none"/>
        <path d="M 254 387.23 L 262.49 378.74" fill="none" stroke="#000000"
              stroke-width="2" stroke-linejoin="round" stroke-linecap="round"
              stroke-miterlimit="10" pointer-events="none"/>
        <path d="M 256.57 367.71 L 260.81 371.96 L 263.64 364.89 Z"
              fill="#000000" stroke="#000000" stroke-linejoin="round"
              stroke-linecap="round" stroke-miterlimit="10"
              pointer-events="none"/>
        <path d="M 252.33 376.22 L 260.81 367.73" fill="none" stroke="#000000"
              stroke-width="2" stroke-linejoin="round" stroke-linecap="round"
              stroke-miterlimit="10" pointer-events="none"/>
        <rect x="236" y="356" width="8" height="8" fill="none" stroke="none"
              pointer-events="none"/>
        <rect x="236" y="416" width="8" height="8" fill="none" stroke="none"
              pointer-events="none"/>
        <rect x="194" y="380" width="30" height="13" fill-opacity="0"
              fill="#dae2f2" stroke="#000000" stroke-opacity="0"
              pointer-events="none"/>
        <g fill="#000000" font-family="Arial,Helvetica" font-weight="bold"
           text-anchor="middle" font-size="12px">
            <text x="208.75" y="390.25">
                Green
            </text>
        </g>
        <rect x="159" y="359" width="2" height="2" fill="#000000" stroke="none"
              pointer-events="none"/>
        <rect x="159" y="419" width="2" height="2" fill="#000000" stroke="none"
              pointer-events="none"/>
        <path d="M 152 382.26 C 174 382.26 168 382.26 168 382.26" fill="none"
              stroke="#000000" stroke-width="2" stroke-linecap="round"
              stroke-miterlimit="10" pointer-events="none"/>
        <path d="M 159.86 382.54 C 159.86 382.54 159.86 382.54 152 397.26 C 167.72 397.26 167.72 397.26 167.72 397.26 Z"
              fill="#000000" stroke="#000000" stroke-width="1.49"
              stroke-linejoin="round" stroke-linecap="round"
              stroke-miterlimit="10" pointer-events="none"/>
        <path d="M 160 361 L 160 419" fill="#000000" stroke="#000000"
              stroke-width="2" stroke-linecap="square" stroke-miterlimit="10"
              pointer-events="none"/>
        <path d="M 178.25 378.77 L 182.49 383.01 L 185.32 375.94 Z"
              fill="#000000" stroke="#000000" stroke-linejoin="round"
              stroke-linecap="square" stroke-miterlimit="10"
              pointer-events="none"/>
        <path d="M 174 387.23 L 182.49 378.74" fill="none" stroke="#000000"
              stroke-width="2" stroke-linejoin="round" stroke-linecap="round"
              stroke-miterlimit="10" pointer-events="none"/>
        <path d="M 176.57 367.71 L 180.81 371.96 L 183.64 364.89 Z"
              fill="#000000" stroke="#000000" stroke-linejoin="round"
              stroke-linecap="round" stroke-miterlimit="10"
              pointer-events="none"/>
        <path d="M 172.33 376.22 L 180.81 367.73" fill="none" stroke="#000000"
              stroke-width="2" stroke-linejoin="round" stroke-linecap="round"
              stroke-miterlimit="10" pointer-events="none"/>
        <rect x="156" y="356" width="8" height="8" fill="none" stroke="none"
              pointer-events="none"/>
        <rect x="156" y="416" width="8" height="8" fill="none" stroke="none"
              pointer-events="none"/>
        <rect x="114" y="380" width="30" height="13" fill-opacity="0"
              fill="#dae2f2" stroke="#000000" stroke-opacity="0"
              pointer-events="none"/>
        <g fill="#000000" font-family="Arial,Helvetica" font-weight="bold"
           text-anchor="middle" font-size="12px">
            <text x="128.75" y="390.25">
                Green
            </text>
        </g>
        <rect x="79" y="359" width="2" height="2" fill="#000000" stroke="none"
              pointer-events="none"/>
        <rect x="79" y="419" width="2" height="2" fill="#000000" stroke="none"
              pointer-events="none"/>
        <path d="M 72 382.26 C 94 382.26 88 382.26 88 382.26" fill="none"
              stroke="#000000" stroke-width="2" stroke-linecap="round"
              stroke-miterlimit="10" pointer-events="none"/>
        <path d="M 79.86 382.54 C 79.86 382.54 79.86 382.54 72 397.26 C 87.72 397.26 87.72 397.26 87.72 397.26 Z"
              fill="#000000" stroke="#000000" stroke-width="1.49"
              stroke-linejoin="round" stroke-linecap="round"
              stroke-miterlimit="10" pointer-events="none"/>
        <path d="M 80 361 L 80 419" fill="#000000" stroke="#000000"
              stroke-width="2" stroke-linecap="square" stroke-miterlimit="10"
              pointer-events="none"/>
        <path d="M 98.25 378.77 L 102.49 383.01 L 105.32 375.94 Z"
              fill="#000000" stroke="#000000" stroke-linejoin="round"
              stroke-linecap="square" stroke-miterlimit="10"
              pointer-events="none"/>
        <path d="M 94 387.23 L 102.49 378.74" fill="none" stroke="#000000"
              stroke-width="2" stroke-linejoin="round" stroke-linecap="round"
              stroke-miterlimit="10" pointer-events="none"/>
        <path d="M 96.57 367.71 L 100.81 371.96 L 103.64 364.89 Z"
              fill="#000000" stroke="#000000" stroke-linejoin="round"
              stroke-linecap="round" stroke-miterlimit="10"
              pointer-events="none"/>
        <path d="M 92.33 376.22 L 100.81 367.73" fill="none" stroke="#000000"
              stroke-width="2" stroke-linejoin="round" stroke-linecap="round"
              stroke-miterlimit="10" pointer-events="none"/>
        <rect x="76" y="356" width="8" height="8" fill="none" stroke="none"
              pointer-events="none"/>
        <rect x="76" y="416" width="8" height="8" fill="none" stroke="none"
              pointer-events="none"/>
        <rect x="34" y="380" width="30" height="13" fill-opacity="0"
              fill="#dae2f2" stroke="#000000" stroke-opacity="0"
              pointer-events="none"/>
        <g fill="#000000" font-family="Arial,Helvetica" font-weight="bold"
           text-anchor="middle" font-size="12px">
            <text x="48.75" y="390.25">
                Green
            </text>
        </g>
        <rect x="239" y="299" width="2" height="2" fill="#000000" stroke="none"
              pointer-events="none"/>
        <rect x="239" y="359" width="2" height="2" fill="#000000" stroke="none"
              pointer-events="none"/>
        <path d="M 240 312 L 247 315 L 240 318" fill="none" stroke="#000000"
              stroke-width="2" stroke-linejoin="round" stroke-linecap="round"
              stroke-miterlimit="10" pointer-events="none"/>
        <path d="M 240 318 L 233 321 L 240 324" fill="none" stroke="#000000"
              stroke-width="2" stroke-linejoin="round" stroke-linecap="round"
              stroke-miterlimit="10" pointer-events="none"/>
        <path d="M 240 324 L 247 327 L 240 330" fill="none" stroke="#000000"
              stroke-width="2" stroke-linejoin="round" stroke-linecap="round"
              stroke-miterlimit="10" pointer-events="none"/>
        <path d="M 240 330 L 233 333 L 240 336" fill="none" stroke="#000000"
              stroke-width="2" stroke-linejoin="round" stroke-linecap="round"
              stroke-miterlimit="10" pointer-events="none"/>
        <path d="M 240 336 L 247 339 L 240 342" fill="none" stroke="#000000"
              stroke-width="2" stroke-linejoin="round" stroke-linecap="round"
              stroke-miterlimit="10" pointer-events="none"/>
        <path d="M 240 342 L 233 345 L 240 348" fill="none" stroke="#000000"
              stroke-width="2" stroke-linejoin="round" stroke-linecap="round"
              stroke-miterlimit="10" pointer-events="none"/>
        <path d="M 240 301 L 240 311" fill="#000000" stroke="#000000"
              stroke-width="2" stroke-linecap="square" stroke-miterlimit="10"
              pointer-events="none"/>
        <path d="M 240 349 L 240 359" fill="#000000" stroke="#000000"
              stroke-width="2" stroke-linecap="square" stroke-miterlimit="10"
              pointer-events="none"/>
        <rect x="236" y="296" width="8" height="8" fill="none" stroke="none"
              pointer-events="none"/>
        <rect x="236" y="356" width="8" height="8" fill="none" stroke="none"
              pointer-events="none"/>
        <rect x="204" y="326" width="26" height="13" fill-opacity="0"
              fill="#dae2f2" stroke="#000000" stroke-opacity="0"
              pointer-events="none"/>
        <g fill="#000000" font-family="Arial,Helvetica" font-weight="bold"
           text-anchor="middle" font-size="12px">
            <text x="216.75" y="336.25">
                330R
            </text>
        </g>
        <rect x="159" y="299" width="2" height="2" fill="#000000" stroke="none"
              pointer-events="none"/>
        <rect x="159" y="359" width="2" height="2" fill="#000000" stroke="none"
              pointer-events="none"/>
        <path d="M 160 312 L 167 315 L 160 318" fill="none" stroke="#000000"
              stroke-width="2" stroke-linejoin="round" stroke-linecap="round"
              stroke-miterlimit="10" pointer-events="none"/>
        <path d="M 160 318 L 153 321 L 160 324" fill="none" stroke="#000000"
              stroke-width="2" stroke-linejoin="round" stroke-linecap="round"
              stroke-miterlimit="10" pointer-events="none"/>
        <path d="M 160 324 L 167 327 L 160 330" fill="none" stroke="#000000"
              stroke-width="2" stroke-linejoin="round" stroke-linecap="round"
              stroke-miterlimit="10" pointer-events="none"/>
        <path d="M 160 330 L 153 333 L 160 336" fill="none" stroke="#000000"
              stroke-width="2" stroke-linejoin="round" stroke-linecap="round"
              stroke-miterlimit="10" pointer-events="none"/>
        <path d="M 160 336 L 167 339 L 160 342" fill="none" stroke="#000000"
              stroke-width="2" stroke-linejoin="round" stroke-linecap="round"
              stroke-miterlimit="10" pointer-events="none"/>
        <path d="M 160 342 L 153 345 L 160 348" fill="none" stroke="#000000"
              stroke-width="2" stroke-linejoin="round" stroke-linecap="round"
              stroke-miterlimit="10" pointer-events="none"/>
        <path d="M 160 301 L 160 311" fill="#000000" stroke="#000000"
              stroke-width="2" stroke-linecap="square" stroke-miterlimit="10"
              pointer-events="none"/>
        <path d="M 160 349 L 160 359" fill="#000000" stroke="#000000"
              stroke-width="2" stroke-linecap="square" stroke-miterlimit="10"
              pointer-events="none"/>
        <rect x="156" y="296" width="8" height="8" fill="none" stroke="none"
              pointer-events="none"/>
        <rect x="156" y="356" width="8" height="8" fill="none" stroke="none"
              pointer-events="none"/>
        <rect x="124" y="326" width="26" height="13" fill-opacity="0"
              fill="#dae2f2" stroke="#000000" stroke-opacity="0"
              pointer-events="none"/>
        <g fill="#000000" font-family="Arial,Helvetica" font-weight="bold"
           text-anchor="middle" font-size="12px">
            <text x="136.75" y="336.25">
                330R
            </text>
        </g>
        <rect x="79" y="299" width="2" height="2" fill="#000000" stroke="none"
              pointer-events="none"/>
        <rect x="79" y="359" width="2" height="2" fill="#000000" stroke="none"
              pointer-events="none"/>
        <path d="M 80 312 L 87 315 L 80 318" fill="none" stroke="#000000"
              stroke-width="2" stroke-linejoin="round" stroke-linecap="round"
              stroke-miterlimit="10" pointer-events="none"/>
        <path d="M 80 318 L 73 321 L 80 324" fill="none" stroke="#000000"
              stroke-width="2" stroke-linejoin="round" stroke-linecap="round"
              stroke-miterlimit="10" pointer-events="none"/>
        <path d="M 80 324 L 87 327 L 80 330" fill="none" stroke="#000000"
              stroke-width="2" stroke-linejoin="round" stroke-linecap="round"
              stroke-miterlimit="10" pointer-events="none"/>
        <path d="M 80 330 L 73 333 L 80 336" fill="none" stroke="#000000"
              stroke-width="2" stroke-linejoin="round" stroke-linecap="round"
              stroke-miterlimit="10" pointer-events="none"/>
        <path d="M 80 336 L 87 339 L 80 342" fill="none" stroke="#000000"
              stroke-width="2" stroke-linejoin="round" stroke-linecap="round"
              stroke-miterlimit="10" pointer-events="none"/>
        <path d="M 80 342 L 73 345 L 80 348" fill="none" stroke="#000000"
              stroke-width="2" stroke-linejoin="round" stroke-linecap="round"
              stroke-miterlimit="10" pointer-events="none"/>
        <path d="M 80 301 L 80 311" fill="#000000" stroke="#000000"
              stroke-width="2" stroke-linecap="square" stroke-miterlimit="10"
              pointer-events="none"/>
        <path d="M 80 349 L 80 359" fill="#000000" stroke="#000000"
              stroke-width="2" stroke-linecap="square" stroke-miterlimit="10"
              pointer-events="none"/>
        <rect x="76" y="296" width="8" height="8" fill="none" stroke="none"
              pointer-events="none"/>
        <rect x="76" y="356" width="8" height="8" fill="none" stroke="none"
              pointer-events="none"/>
        <rect x="44" y="326" width="26" height="13" fill-opacity="0"
              fill="#dae2f2" stroke="#000000" stroke-opacity="0"
              pointer-events="none"/>
        <g fill="#000000" font-family="Arial,Helvetica" font-weight="bold"
           text-anchor="middle" font-size="12px">
            <text x="56.75" y="336.25">
                330R
            </text>
        </g>
        <path d="M 80 300 L 340 300" fill="none" stroke="#000000"
              stroke-width="2" stroke-miterlimit="10" pointer-events="none"/>
        <rect x="70" y="170" width="200" height="50" rx="7.5" ry="7.5"
              fill="none" stroke="none" pointer-events="none"/>
        <g fill="#000" font-family="Arial,Helvetica" font-weight="bold"
           font-size="12px">
            <text x="72" y="199">
                Arduino Bomb Game Diagram
            </text>
        </g>
    </g>
</svg>